<?xml version="1.0" standalone="no"?>
<!DOCTYPE svg PUBLIC "-//W3C//DTD SVG 20010904//EN"
 "http://www.w3.org/TR/2001/REC-SVG-20010904/DTD/svg10.dtd">
<svg version="1.0" xmlns="http://www.w3.org/2000/svg"
 width="512.000000pt" height="512.000000pt" viewBox="0 0 512.000000 512.000000"
 preserveAspectRatio="xMidYMid meet">

<g transform="translate(0.000000,512.000000) scale(0.100000,-0.100000)"
fill="#000000" stroke="none">
<path d="M3610 5109 c-28 -12 -76 -54 -93 -84 -8 -12 -14 -93 -17 -210 l-5
-190 -190 -5 c-211 -6 -218 -8 -272 -75 l-28 -35 -773 0 c-639 0 -778 -2 -805
-14 -44 -19 -1064 -1043 -1072 -1076 -3 -14 -4 -745 -3 -1625 3 -1537 4 -1601
22 -1635 31 -59 96 -119 154 -140 52 -20 80 -20 1711 -20 1442 0 1664 2 1708
15 66 20 134 80 164 147 l24 53 3 715 c2 667 1 717 -15 750 -12 23 -30 39 -55
48 -33 13 -41 12 -75 -4 -27 -14 -41 -29 -50 -54 -9 -26 -12 -219 -12 -732
l-1 -697 -26 -20 -27 -21 -1643 2 c-1562 3 -1644 4 -1661 21 -17 17 -18 94
-21 1542 l-2 1525 378 0 c310 0 388 3 430 15 68 20 151 96 183 167 24 52 24
57 27 441 l3 387 714 0 715 0 0 -154 c0 -165 6 -195 48 -239 47 -49 57 -52
257 -57 l190 -5 5 -190 c5 -196 8 -211 52 -252 46 -44 88 -53 237 -53 l140 0
3 -419 3 -420 29 -30 c53 -55 139 -37 167 36 5 14 9 203 9 433 0 400 0 409 20
415 26 8 77 51 93 79 8 13 14 88 17 211 l5 190 190 5 c117 3 198 9 210 17 31
18 73 65 84 96 7 17 11 125 11 274 0 229 -1 250 -21 289 -12 26 -36 53 -57 66
-34 21 -51 23 -227 28 l-190 5 -5 190 c-5 176 -7 193 -28 227 -13 21 -40 45
-66 57 -39 20 -59 21 -292 20 -140 0 -260 -5 -274 -10z m462 -409 l3 -220 28
-27 27 -28 220 -3 220 -3 0 -185 0 -184 -216 0 -216 0 -34 -34 -34 -34 0 -211
0 -211 -185 0 -185 0 0 205 c0 224 -5 251 -55 273 -17 8 -94 12 -235 12 l-210
0 0 184 0 185 221 3 221 3 29 33 29 32 0 215 0 215 184 0 185 0 3 -220z
m-2723 -1157 c-26 -49 -55 -53 -365 -53 l-289 0 330 330 330 330 3 -292 c2
-209 -1 -299 -9 -315z"/>
<path d="M1140 2633 c-75 -27 -90 -124 -26 -175 20 -16 93 -18 1109 -18 l1089
0 29 29 c32 32 38 71 17 116 -26 58 26 55 -1135 54 -587 0 -1075 -3 -1083 -6z"/>
<path d="M3967 2164 c-57 -57 -29 -155 49 -170 45 -8 85 14 107 58 16 32 17
44 7 72 -22 68 -113 90 -163 40z"/>
<path d="M1140 2043 c-30 -11 -60 -47 -66 -78 -7 -37 16 -89 45 -105 13 -7
380 -10 1106 -10 l1087 0 29 29 c32 32 38 71 17 116 -26 58 26 55 -1135 54
-587 0 -1075 -3 -1083 -6z"/>
<path d="M1119 1437 c-70 -47 -57 -147 21 -174 46 -16 2096 -18 2152 -3 78 22
102 103 49 162 l-29 33 -1080 3 -1079 2 -34 -23z"/>
</g>
</svg>
