<?xml version="1.0" standalone="no"?>
<!DOCTYPE svg PUBLIC "-//W3C//DTD SVG 20010904//EN"
 "http://www.w3.org/TR/2001/REC-SVG-20010904/DTD/svg10.dtd">
<svg version="1.0" xmlns="http://www.w3.org/2000/svg"
 width="512.000000pt" height="512.000000pt" viewBox="0 0 512.000000 512.000000"
 preserveAspectRatio="xMidYMid meet">

<g transform="translate(0.000000,512.000000) scale(0.100000,-0.100000)"
fill="#000000" stroke="none">
<path d="M3840 5098 c-81 -41 -110 -129 -71 -214 31 -67 67 -82 256 -107 91
-11 162 -24 158 -28 -5 -3 -633 -346 -1396 -762 l-1388 -757 -472 139 c-260
76 -483 141 -497 144 -72 18 -171 -51 -186 -128 -9 -51 12 -114 51 -150 29
-28 91 -48 551 -183 286 -84 535 -155 556 -158 27 -5 50 0 90 18 29 14 682
368 1450 786 768 419 1399 762 1402 762 2 0 -27 -66 -66 -147 -58 -121 -71
-157 -71 -195 2 -150 196 -216 286 -97 14 19 107 204 206 411 159 331 181 383
181 426 0 34 -7 59 -23 82 -44 66 -55 69 -506 126 -229 29 -427 53 -441 54
-14 0 -46 -10 -70 -22z"/>
<path d="M3595 3696 c-37 -16 -70 -52 -84 -89 -8 -20 -11 -492 -11 -1534 l0
-1505 22 -40 c30 -53 77 -80 138 -80 82 0 142 48 160 128 6 22 10 628 10 1422
l0 1382 305 0 305 0 0 -1406 0 -1406 22 -40 c30 -53 77 -80 138 -80 90 0 153
59 165 155 3 29 5 714 3 1523 l-3 1470 -25 37 c-14 21 -43 46 -66 57 -39 19
-61 20 -545 20 -398 -1 -510 -4 -534 -14z"/>
<path d="M2025 2966 c-35 -15 -83 -67 -90 -99 -3 -12 -4 -539 -3 -1172 l3
-1150 23 -33 c31 -43 75 -64 132 -64 57 0 101 21 132 64 l23 33 3 1053 2 1052
310 0 310 0 0 -1041 c0 -1164 -5 -1086 71 -1136 71 -47 171 -29 223 40 l21 28
3 1163 2 1163 -22 33 c-13 18 -36 43 -51 54 -28 21 -38 21 -545 23 -415 2
-523 0 -547 -11z"/>
<path d="M441 2583 c-18 -9 -45 -34 -60 -57 l-26 -40 -3 -915 c-2 -504 0 -939
3 -968 12 -96 75 -155 164 -155 59 0 104 24 134 72 l22 35 5 860 5 860 303 3
302 2 0 -832 c0 -464 5 -850 10 -872 18 -80 78 -128 160 -128 61 0 108 27 138
81 l22 39 -2 965 c-3 962 -3 966 -24 994 -11 15 -36 38 -54 51 l-33 22 -516 0
c-459 0 -520 -2 -550 -17z"/>
<path d="M113 319 c-43 -12 -90 -62 -104 -109 -23 -75 14 -159 84 -190 41 -19
97 -20 2467 -20 l2426 0 44 22 c50 25 90 89 90 142 0 47 -37 113 -78 138 l-37
23 -2430 2 c-1466 1 -2443 -2 -2462 -8z"/>
</g>
</svg>
